<svg width="15" height="21" viewBox="0 0 15 21" fill="none" xmlns="http://www.w3.org/2000/svg">
<path d="M7.45612 11.9514L5.11375 9.609C5.08167 9.57692 5.05454 9.53929 5.03237 9.49613C5.01079 9.45354 5 9.40775 5 9.35875C5 9.26075 5.03208 9.17646 5.09625 9.10588C5.16158 9.03529 5.24733 9 5.3535 9H10.3209C10.4265 9 10.5116 9.03617 10.5764 9.1085C10.6411 9.18083 10.6735 9.26483 10.6735 9.3605C10.6735 9.385 10.6356 9.46783 10.5597 9.609L8.21737 11.9514C8.16312 12.0056 8.10479 12.0473 8.04237 12.0765C7.97996 12.1057 7.91142 12.1202 7.83675 12.1202C7.76208 12.1202 7.69354 12.1057 7.63112 12.0765C7.56871 12.0473 7.51037 12.0056 7.45612 11.9514Z" fill="#6A6A6A"/>
</svg>
