<svg width="28" height="30" viewBox="0 0 28 30" fill="none" xmlns="http://www.w3.org/2000/svg">
<path d="M10.7781 10.839L14.9448 15.0056L10.7781 19.1722C10.6787 19.2717 10.5998 19.3897 10.546 19.5196C10.4922 19.6495 10.4645 19.7887 10.4645 19.9293C10.4645 20.0699 10.4922 20.2092 10.546 20.3391C10.5998 20.469 10.6787 20.587 10.7781 20.6864C10.8776 20.7858 10.9956 20.8647 11.1255 20.9185C11.2554 20.9723 11.3946 21 11.5352 21C11.6758 21 11.815 20.9723 11.9449 20.9185C12.0748 20.8647 12.1929 20.7858 12.2923 20.6864L17.2214 15.7573C17.6402 15.3385 17.6402 14.662 17.2214 14.2431L12.2923 9.31405C12.193 9.2145 12.0749 9.13552 11.945 9.08163C11.8151 9.02774 11.6759 9 11.5352 9C11.3946 9 11.2553 9.02774 11.1254 9.08163C10.9955 9.13552 10.8775 9.2145 10.7781 9.31405C10.3701 9.73286 10.3593 10.4201 10.7781 10.839Z" fill="black"/>
</svg>
