<svg width="19" height="19" viewBox="0 0 19 19" fill="none" xmlns="http://www.w3.org/2000/svg">
<path d="M9.5 16.625C8.51939 16.625 7.59578 16.4376 6.72917 16.0629C5.86256 15.6877 5.10784 15.1784 4.465 14.535C3.82217 13.8916 3.31287 13.1369 2.93709 12.2708C2.56131 11.4047 2.37395 10.4811 2.375 9.5C2.375 8.51622 2.56237 7.59182 2.93709 6.72679C3.31234 5.86124 3.82164 5.10731 4.465 4.465C5.10837 3.82269 5.86309 3.31339 6.72917 2.93708C7.59578 2.56236 8.51939 2.375 9.5 2.375C10.4838 2.375 11.4082 2.56236 12.2732 2.93708C13.1388 3.31233 13.893 3.82164 14.5358 4.465C15.1786 5.10836 15.6877 5.86229 16.0629 6.72679C16.4376 7.59235 16.625 8.51675 16.625 9.5C16.625 10.4806 16.4376 11.4042 16.0629 12.2708C15.6877 13.1374 15.1784 13.8922 14.535 14.535C13.8916 15.1778 13.1377 15.6871 12.2732 16.0629C11.4087 16.4387 10.4843 16.6261 9.5 16.625ZM9.5 15.8397C9.96445 15.2428 10.3476 14.6567 10.6495 14.0814C10.9509 13.5061 11.196 12.8622 11.385 12.1497H7.61505C7.82457 12.9023 8.07474 13.5663 8.36555 14.1415C8.65688 14.7168 9.03503 15.2829 9.5 15.8397ZM8.49221 15.7209C8.12277 15.2855 7.78552 14.7472 7.48046 14.1059C7.17541 13.4652 6.94846 12.8129 6.79963 12.1489H3.76359C4.21748 13.1332 4.86057 13.9407 5.69288 14.5714C6.52571 15.2016 7.45882 15.5848 8.49221 15.7209ZM10.5078 15.7209C11.5412 15.5848 12.4743 15.2016 13.3071 14.5714C14.1394 13.9407 14.7825 13.1332 15.2364 12.1489H12.2012C12.0006 12.8229 11.7481 13.4802 11.4435 14.121C11.1385 14.7622 10.8266 15.2961 10.5078 15.7209ZM3.44059 11.358H6.63496C6.5748 11.0329 6.53257 10.7163 6.5083 10.408C6.48296 10.1003 6.4703 9.79767 6.4703 9.5C6.4703 9.20233 6.4827 8.89965 6.5075 8.59196C6.53231 8.28426 6.57453 7.9676 6.63417 7.64196H3.44138C3.35535 7.9164 3.28806 8.21539 3.2395 8.53892C3.19095 8.86192 3.16667 9.18228 3.16667 9.5C3.16667 9.81772 3.19069 10.1383 3.23871 10.4619C3.28674 10.7854 3.35403 11.0839 3.44059 11.3573M7.42663 11.3573H11.5734C11.6335 11.0327 11.6758 10.7213 11.7 10.4231C11.7254 10.1254 11.738 9.81772 11.738 9.5C11.738 9.18228 11.7256 8.87458 11.7008 8.57692C11.676 8.27925 11.6338 7.96786 11.5742 7.64275H7.42584C7.3662 7.96733 7.32398 8.27872 7.29917 8.57692C7.27437 8.87458 7.26196 9.18228 7.26196 9.5C7.26196 9.81772 7.27437 10.1254 7.29917 10.4231C7.32398 10.7208 7.36699 11.0321 7.42663 11.3573ZM12.3658 11.3573H15.5594C15.6454 11.0833 15.7127 10.7849 15.7613 10.4619C15.8093 10.1383 15.8333 9.81772 15.8333 9.5C15.8333 9.18228 15.8093 8.86165 15.7613 8.53813C15.7133 8.2146 15.646 7.91614 15.5594 7.64275H12.365C12.4252 7.96733 12.4674 8.28374 12.4917 8.59196C12.517 8.90018 12.5297 9.20286 12.5297 9.5C12.5297 9.79714 12.5173 10.0998 12.4925 10.408C12.4677 10.7163 12.4255 11.0329 12.3658 11.358M12.2012 6.85108H15.2364C14.7725 5.84619 14.1371 5.03869 13.3301 4.42858C12.5231 3.81847 11.5824 3.43029 10.5078 3.26404C10.8772 3.75013 11.2095 4.30614 11.5045 4.93208C11.7995 5.5575 12.0318 6.19717 12.2012 6.85108ZM7.61505 6.85108H11.385C11.176 6.10797 10.9181 5.43611 10.6115 4.8355C10.3049 4.23489 9.93437 3.6765 9.5 3.16033C9.06564 3.67597 8.69514 4.23436 8.3885 4.8355C8.08187 5.43664 7.82352 6.1085 7.61505 6.85108ZM3.76438 6.85108H6.79963C6.96905 6.19769 7.20127 5.55803 7.4963 4.93208C7.79132 4.30614 8.12356 3.75013 8.493 3.26404C7.40895 3.43082 6.46581 3.82138 5.66359 4.43571C4.86137 5.0511 4.22803 5.85596 3.76359 6.85029" fill="#4883F9"/>
</svg>
